<?xml version="1.0" standalone="no"?>
<!DOCTYPE svg PUBLIC "-//W3C//DTD SVG 20010904//EN"
 "http://www.w3.org/TR/2001/REC-SVG-20010904/DTD/svg10.dtd">
<svg version="1.0" xmlns="http://www.w3.org/2000/svg"
 width="450.000000pt" height="250.000000pt" viewBox="0 0 450.000000 250.000000"
 preserveAspectRatio="xMidYMid meet">

<g transform="translate(0.000000,250.000000) scale(0.100000,-0.100000)"
fill="#000000" stroke="none">
<path d="M1100 2403 l-45 -16 40 -18 c51 -23 81 -23 130 -1 l39 18 -42 17
c-51 20 -63 20 -122 0z"/>
<path d="M850 2283 c-52 -20 -264 -98 -470 -173 l-375 -137 0 -93 0 -93 65
-22 65 -22 3 -176 2 -177 26 0 c58 0 114 -51 164 -150 16 -31 40 -71 54 -87
25 -30 26 -32 28 -233 l3 -203 230 -83 c126 -46 238 -84 250 -84 46 0 45 0 43
310 l-3 294 -90 33 c-49 18 -96 36 -104 38 -17 7 6 35 63 76 92 68 133 25 215
-222 51 -154 120 -244 203 -264 46 -11 107 25 198 119 92 95 123 116 169 116
42 0 63 -27 100 -125 37 -97 62 -132 107 -151 47 -20 68 -17 103 12 37 30 53
81 82 249 29 174 71 255 130 255 19 0 34 -10 53 -34 l26 -35 0 -370 0 -371
1153 2 1152 3 0 610 0 610 -1158 3 c-1042 2 -1158 4 -1155 18 2 9 30 25 68 38
l65 22 3 94 3 95 -38 12 c-21 7 -236 84 -478 171 l-440 160 -8 -67 c-4 -36 -5
-101 -2 -143 l5 -76 -82 -33 c-46 -18 -99 -32 -118 -32 -19 0 -72 15 -117 32
l-83 33 0 144 c0 79 -3 144 -7 143 -5 0 -51 -17 -103 -36z m3029 -710 c61 -19
106 -65 92 -91 -5 -9 -19 -27 -31 -40 l-21 -22 -37 25 c-42 28 -74 32 -92 10
-19 -23 -5 -43 42 -55 59 -16 114 -53 134 -92 20 -39 14 -110 -13 -147 -65
-86 -171 -96 -275 -24 -41 28 -46 48 -24 92 28 53 41 56 89 21 51 -37 102 -39
102 -5 0 20 -14 28 -94 61 -54 22 -81 63 -81 122 0 45 21 102 46 123 15 12 81
38 100 39 7 0 35 -8 63 -17z m-841 -9 c184 -76 190 -362 10 -455 -110 -56
-243 25 -278 170 -24 103 31 232 119 278 52 27 97 29 149 7z m-588 -79 l5 -80
67 -3 67 -3 3 83 3 83 60 0 60 0 0 -230 0 -230 -39 -3 c-22 -2 -50 -1 -63 2
-22 6 -23 11 -23 91 l0 85 -70 0 -70 0 0 -84 c0 -92 -3 -96 -65 -96 -68 0 -65
-11 -65 234 0 123 3 226 7 230 4 4 32 6 63 4 l55 -3 5 -80z m892 -56 c5 -124
8 -143 26 -161 23 -23 64 -27 87 -8 12 10 15 39 15 145 0 74 3 140 6 149 5 12
21 16 66 16 l60 0 -4 -178 c-3 -174 -4 -180 -30 -219 -37 -56 -84 -76 -167
-71 -80 4 -118 28 -153 98 -21 40 -23 61 -26 208 l-3 162 59 0 59 0 5 -141z
m993 81 l0 -55 -92 -3 c-91 -3 -93 -3 -93 -27 0 -24 2 -24 88 -27 l87 -3 0
-55 0 -55 -87 -3 -88 -3 0 -29 0 -29 93 -3 92 -3 3 -43 c5 -69 -1 -72 -157
-72 -93 0 -141 4 -149 12 -17 17 -17 429 0 446 9 9 53 12 158 10 l145 -3 0
-55z m-3789 -314 l69 -24 3 -232 c2 -184 0 -231 -10 -228 -7 3 -43 15 -80 27
l-68 23 0 229 c0 126 4 229 8 229 5 0 40 -11 78 -24z m214 -74 l75 -28 3 -232
c1 -128 0 -232 -2 -232 -4 0 -148 51 -153 55 -6 3 -14 445 -9 454 9 14 -2 16
86 -17z m3360 -129 c8 -3 17 -7 20 -8 69 -26 71 -28 66 -49 -3 -12 -10 -46
-17 -76 -13 -66 -22 -78 -45 -59 -9 8 -18 13 -18 11 -1 -2 -12 1 -26 6 -14 5
-40 13 -57 17 -18 3 -33 11 -33 15 0 5 -7 7 -15 4 -8 -4 -15 -1 -15 6 0 6 -4
9 -8 6 -4 -2 -13 -1 -20 2 -8 6 -4 30 14 89 l25 82 57 -20 c31 -10 64 -22 72
-26z m-1431 -8 c38 -19 54 -63 49 -131 -6 -70 -43 -113 -106 -121 -39 -5 -41
-8 -44 -42 -3 -35 -4 -36 -43 -36 l-40 0 -3 173 -2 172 80 0 c51 0 91 -5 109
-15z m318 -145 c29 -85 51 -161 48 -167 -2 -8 -22 -13 -48 -13 -42 0 -45 2
-51 31 -6 29 -7 30 -53 27 -41 -3 -48 -6 -53 -28 -5 -22 -12 -25 -53 -28 -59
-4 -59 -4 -6 164 54 170 58 176 117 172 l47 -3 52 -155z m181 -4 c3 -167 -2
-186 -42 -186 -48 0 -51 10 -55 170 -2 82 0 157 3 166 4 11 17 14 48 12 l43
-3 3 -159z m168 132 c17 -18 48 -55 70 -83 l39 -50 5 80 5 80 45 0 45 0 0
-165 0 -165 -42 -3 c-40 -3 -42 -2 -100 70 -32 40 -62 76 -68 80 -6 5 -12 -21
-15 -70 l-5 -77 -41 -3 -41 -3 -6 98 c-10 146 -8 218 5 231 24 24 72 14 104
-20z m499 -18 c0 -43 -1 -45 -40 -56 l-40 -11 -3 -111 -3 -112 -39 0 c-35 0
-39 3 -45 30 -4 17 -6 54 -5 83 5 106 2 117 -24 117 -46 0 -56 10 -56 54 0 24
3 46 7 50 4 3 61 5 127 4 l121 -3 0 -45z m201 -137 c115 -42 118 -44 110 -71
-11 -34 -33 -33 -133 6 -97 38 -121 56 -110 86 9 23 22 21 133 -21z m-168 -10
c12 -24 4 -43 -18 -43 -24 0 -33 15 -25 40 8 25 31 26 43 3z m85 -69 c9 -10
-4 -34 -19 -34 -8 0 -14 9 -14 20 0 19 19 27 33 14z m65 -2 c10 -7 10 -23 1
-83 -7 -41 -16 -80 -22 -86 -13 -17 -42 -16 -57 2 -10 12 -7 30 16 95 28 79
36 88 62 72z"/>
<path d="M2915 1414 c-45 -49 -25 -156 32 -170 41 -11 76 7 97 50 16 32 17 44
7 77 -21 70 -91 92 -136 43z"/>
<path d="M2580 870 c0 -35 3 -40 24 -40 32 0 50 24 42 55 -5 20 -13 25 -36 25
-28 0 -30 -2 -30 -40z"/>
<path d="M2886 859 c-10 -52 -8 -59 20 -59 21 0 25 4 19 18 -3 9 -9 29 -12 45
-7 36 -19 34 -27 -4z"/>
</g>
</svg>
